<?xml version="1.0" standalone="no"?>
<!DOCTYPE svg PUBLIC "-//W3C//DTD SVG 20010904//EN"
 "http://www.w3.org/TR/2001/REC-SVG-20010904/DTD/svg10.dtd">
<svg version="1.0" xmlns="http://www.w3.org/2000/svg"
 width="172.000000pt" height="196.000000pt" viewBox="0 0 172.000000 196.000000"
 preserveAspectRatio="xMidYMid meet">

<g transform="translate(0.000000,196.000000) scale(0.100000,-0.100000)"
fill="#000000" stroke="none">
<path d="M620 1881 c-183 -49 -317 -154 -394 -306 -86 -173 -45 -382 98 -500
68 -55 185 -112 301 -145 151 -44 257 -96 333 -165 34 -31 62 -55 62 -53 0 1
-9 31 -19 65 -11 35 -16 65 -12 68 13 7 137 -124 165 -175 14 -26 30 -70 35
-97 9 -46 8 -50 -21 -80 -17 -17 -53 -41 -81 -53 -43 -19 -64 -22 -141 -18
-170 8 -233 68 -257 247 -20 150 -71 215 -194 247 -90 24 -154 6 -220 -60 -60
-60 -75 -102 -75 -207 0 -128 48 -236 142 -325 176 -166 465 -234 678 -159 51
18 65 11 31 -16 -28 -23 -28 -23 62 -3 117 26 231 87 312 169 75 75 114 142
139 240 20 74 20 113 1 193 -19 82 -52 137 -119 200 -69 66 -139 100 -321 157
-171 54 -250 94 -329 166 -31 28 -56 47 -56 43 0 -5 7 -31 15 -58 25 -83 18
-84 -59 -7 -80 79 -109 128 -127 210 -10 49 -10 54 12 77 13 13 48 37 78 52
48 23 68 27 137 26 147 -1 238 -68 262 -191 7 -32 16 -83 22 -114 22 -115 93
-182 208 -196 108 -12 196 32 242 123 22 43 25 62 25 155 0 101 -1 108 -37
181 -65 131 -202 239 -378 298 -97 33 -271 38 -370 11 -79 -21 -96 -20 -64 4
19 14 19 14 -1 14 -11 -1 -49 -9 -85 -18z"/>
</g>
</svg>
